<svg id="visual" viewBox="0 0 960 540" width="960" height="540" xmlns="http://www.w3.org/2000/svg" xmlns:xlink="http://www.w3.org/1999/xlink" version="1.1"><rect x="0" y="0" width="960" height="540" fill="rgb(0, 0, 34)"></rect><defs><linearGradient id="grad1_0" x1="43.8%" y1="0%" x2="100%" y2="100%"><stop offset="14.444444444444446%" stop-color="#fbae3c" stop-opacity="1"></stop><stop offset="85.55555555555554%" stop-color="#fbae3c" stop-opacity="1"></stop></linearGradient></defs><defs><linearGradient id="grad1_1" x1="43.8%" y1="0%" x2="100%" y2="100%"><stop offset="14.444444444444446%" stop-color="#fbae3c" stop-opacity="1"></stop><stop offset="85.55555555555554%" stop-color="#cc5867" stop-opacity="1"></stop></linearGradient></defs><defs><linearGradient id="grad1_2" x1="43.8%" y1="0%" x2="100%" y2="100%"><stop offset="14.444444444444446%" stop-color="#593762" stop-opacity="1"></stop><stop offset="85.55555555555554%" stop-color="#cc5867" stop-opacity="1"></stop></linearGradient></defs><defs><linearGradient id="grad1_3" x1="43.8%" y1="0%" x2="100%" y2="100%"><stop offset="14.444444444444446%" stop-color="#593762" stop-opacity="1"></stop><stop offset="85.55555555555554%" stop-color="#001220" stop-opacity="1"></stop></linearGradient></defs><defs><linearGradient id="grad2_0" x1="0%" y1="0%" x2="56.3%" y2="100%"><stop offset="14.444444444444446%" stop-color="#fbae3c" stop-opacity="1"></stop><stop offset="85.55555555555554%" stop-color="#fbae3c" stop-opacity="1"></stop></linearGradient></defs><defs><linearGradient id="grad2_1" x1="0%" y1="0%" x2="56.3%" y2="100%"><stop offset="14.444444444444446%" stop-color="#cc5867" stop-opacity="1"></stop><stop offset="85.55555555555554%" stop-color="#fbae3c" stop-opacity="1"></stop></linearGradient></defs><defs><linearGradient id="grad2_2" x1="0%" y1="0%" x2="56.3%" y2="100%"><stop offset="14.444444444444446%" stop-color="#cc5867" stop-opacity="1"></stop><stop offset="85.55555555555554%" stop-color="#593762" stop-opacity="1"></stop></linearGradient></defs><defs><linearGradient id="grad2_3" x1="0%" y1="0%" x2="56.3%" y2="100%"><stop offset="14.444444444444446%" stop-color="#001220" stop-opacity="1"></stop><stop offset="85.55555555555554%" stop-color="#593762" stop-opacity="1"></stop></linearGradient></defs><g transform="translate(960, 0)"><path d="M0 319C-41.2 313.6 -82.3 308.3 -122.1 294.7C-161.8 281.1 -200.2 259.4 -229.1 229.1C-258 198.9 -277.4 160.1 -291 120.5C-304.6 81 -312.3 40.5 -320 0L0 0Z" fill="#232745"></path><path d="M0 239.3C-30.9 235.2 -61.7 231.2 -91.6 221C-121.4 210.9 -150.1 194.5 -171.8 171.8C-193.5 149.1 -208.1 120.1 -218.3 90.4C-228.4 60.7 -234.2 30.4 -240 0L0 0Z" fill="#96446e"></path><path d="M0 159.5C-20.6 156.8 -41.2 154.1 -61 147.4C-80.9 140.6 -100.1 129.7 -114.6 114.6C-129 99.4 -138.7 80.1 -145.5 60.3C-152.3 40.5 -156.1 20.2 -160 0L0 0Z" fill="#f17c53"></path><path d="M0 79.8C-10.3 78.4 -20.6 77.1 -30.5 73.7C-40.5 70.3 -50 64.8 -57.3 57.3C-64.5 49.7 -69.4 40 -72.8 30.1C-76.1 20.2 -78.1 10.1 -80 0L0 0Z" fill="#fbae3c"></path></g><g transform="translate(0, 540)"><path d="M0 -324C40.8 -315.7 81.6 -307.3 121.3 -292.9C161 -278.4 199.6 -257.8 227.7 -227.7C255.8 -197.5 273.5 -157.8 285.5 -118.2C297.5 -78.7 303.7 -39.4 310 0L0 0Z" fill="#232745"></path><path d="M0 -243C30.6 -236.7 61.2 -230.5 91 -219.7C120.7 -208.8 149.7 -193.4 170.8 -170.8C191.9 -148.1 205.1 -118.3 214.1 -88.7C223.1 -59 227.8 -29.5 232.5 0L0 0Z" fill="#96446e"></path><path d="M0 -162C20.4 -157.8 40.8 -153.7 60.7 -146.4C80.5 -139.2 99.8 -128.9 113.8 -113.8C127.9 -98.8 136.8 -78.9 142.7 -59.1C148.7 -39.4 151.9 -19.7 155 0L0 0Z" fill="#f17c53"></path><path d="M0 -81C10.2 -78.9 20.4 -76.8 30.3 -73.2C40.2 -69.6 49.9 -64.5 56.9 -56.9C64 -49.4 68.4 -39.4 71.4 -29.6C74.4 -19.7 75.9 -9.8 77.5 0L0 0Z" fill="#fbae3c"></path></g></svg>